# xmcd CD database file
#
# Track frame offsets:
#	150
#	11795
#	25493
#	40353
#	54616
#	69581
#	86462
#	100722
#	116115
#	129244
#	143808
#	156989
#	173604
#	183692
#	196136
#	209795
#	224757
#	237413
#	251798
#	266222
#
# Disc length: 3768 seconds
#
# Revision: 0
# Processed by: cddbd v1.5.2PL0 Copyright (c) Steve Scherf et al.
# Submitted via: CDex 1.51
#
DISCID=380eb614
DTITLE=Various Artist - Legends of Jazz Vol 3
DYEAR=2006
DGENRE=Jazz
TTITLE0=I Didn't Know What Time It Was - Dave Brubeck Trio
TTITLE1=Dizzier And Dizzier -  Dizzy Gillespie
TTITLE2=Moon Love - Chet Baker Quartet
TTITLE3=At Sundown - Oscar Peterson Trio
TTITLE4=Bewitched - Mel Torme
TTITLE5=Let's Cool One - Thelonious Monk
TTITLE6=Holiday Flight - Art Pepper
TTITLE7=Blowin' Up A Storm - Woody Herman and His Orchestra
TTITLE8=Dance Of The Infidels - Sonny Rollins
TTITLE9=Early Autumn - Ella Fitzgerald
TTITLE10=There's A Small Hotel - Stan Getz
TTITLE11=Ray's Idea - Miles Davis
TTITLE12=When Lights Are Low - Coleman Hawkins and His Orchestra
TTITLE13=Long Tail Dexter - Dexter Gordon
TTITLE14=(Get Your Kicks On) Route 66 - Nat King Cole Trio
TTITLE15=They Can't Take That Away From Me - Charlie Parker
TTITLE16=Baia - Stan Kenton and His Orchestra
TTITLE17=How High the Moon - Gene Krupa and His Orchestra
TTITLE18=Perdido - Duke Ellington and His Orchestra
TTITLE19=Easy Street - June Christy
EXTD=YEAR: 2006
EXTT0=
EXTT1=
EXTT2=
EXTT3=
EXTT4=
EXTT5=
EXTT6=
EXTT7=
EXTT8=
EXTT9=
EXTT10=
EXTT11=
EXTT12=
EXTT13=
EXTT14=
EXTT15=
EXTT16=
EXTT17=
EXTT18=
EXTT19=
PLAYORDER=
